<svg width="52" height="50" viewBox="0 0 52 50" fill="none" xmlns="http://www.w3.org/2000/svg">
<path d="M44.3868 39.0966C45.4135 37.4633 46.0202 35.5733 46.0202 33.52C46.0202 27.71 41.3302 23.02 35.5202 23.02C29.7102 23.02 25.0202 27.71 25.0202 33.52C25.0202 39.33 29.7102 44.02 35.4968 44.02C37.5502 44.02 39.4635 43.4133 41.0735 42.3866L48.3535 49.6666L51.6668 46.3533L44.3868 39.0966ZM35.5202 39.3533C32.3002 39.3533 29.6868 36.74 29.6868 33.52C29.6868 30.3 32.3002 27.6866 35.5202 27.6866C38.7402 27.6866 41.3535 30.3 41.3535 33.52C41.3535 36.74 38.7402 39.3533 35.5202 39.3533ZM34.6802 19.52C32.9535 19.5666 31.2968 19.94 29.7802 20.57L28.4968 18.6333L19.6302 33.0533L12.6068 24.84L4.13683 38.3966L0.333496 35.6666L12.0002 17L19.0002 25.1666L28.3335 9.99996L34.6802 19.52ZM40.7235 20.6866C39.2302 20.0333 37.6202 19.6366 35.9402 19.5433L47.8868 0.666626L51.6668 3.41996L40.7235 20.6866Z" fill="#3F51B5"/>
</svg>
