<svg width="52" height="48" viewBox="0 0 52 48" fill="none" xmlns="http://www.w3.org/2000/svg">
<path d="M26.5179 42.3283C26.0979 42.7483 25.3513 42.8183 24.8613 42.3283C24.4413 41.9083 24.3713 41.1617 24.8613 40.6717L32.7713 32.7617L29.4813 29.4717L21.5713 37.3817C21.1279 37.8483 20.3813 37.825 19.9146 37.3817C19.4246 36.8917 19.4946 36.145 19.9146 35.725L27.8246 27.815L24.5346 24.525L16.6246 32.435C16.2046 32.855 15.4579 32.925 14.9679 32.435C14.5246 31.9917 14.5246 31.245 14.9679 30.7783L22.8779 22.8683L19.5646 19.5783L11.6546 27.4883C11.2346 27.9083 10.4879 27.9783 9.99794 27.4883C9.55461 27.0217 9.55461 26.2983 9.99794 25.8317L20.2179 15.6117L24.5813 19.9517C26.7979 22.1683 30.6246 22.145 32.8413 19.9517C35.1279 17.665 35.1279 13.9783 32.8413 11.6917L28.5013 7.35168L29.1546 6.69834C30.9746 4.87834 33.9379 4.87834 35.7579 6.69834L45.6513 16.5917C47.4713 18.4117 47.4713 21.375 45.6513 23.195L26.5179 42.3283ZM48.9413 26.5083C52.5813 22.8683 52.5813 16.965 48.9413 13.3017L39.0479 3.40834C35.4079 -0.231655 29.5046 -0.231655 25.8413 3.40834L25.1879 4.06168L24.5346 3.40834C20.8946 -0.231655 14.9913 -0.231655 11.3279 3.40834L3.06794 11.6683C-0.245391 14.9817 -0.548724 20.1383 2.13461 23.7783L5.51794 20.395C4.60794 18.645 4.91128 16.4283 6.38128 14.9583L14.6413 6.69834C16.4613 4.87834 19.4246 4.87834 21.2446 6.69834L29.5513 15.005C29.9713 15.425 30.0413 16.1717 29.5513 16.6617C29.0613 17.1517 28.3146 17.0817 27.8946 16.6617L20.2179 9.00834L6.68461 22.5183C4.39794 24.7817 4.39794 28.4917 6.68461 30.7783C7.59461 31.6883 8.76128 32.2483 9.99794 32.4117C10.1613 33.625 10.6979 34.7917 11.6313 35.725C12.5646 36.6583 13.7313 37.195 14.9446 37.3583C15.1079 38.5717 15.6446 39.7383 16.5779 40.6717C17.5113 41.605 18.6779 42.1417 19.8913 42.305C20.0546 43.565 20.6146 44.7083 21.5246 45.6183C22.6213 46.715 24.0913 47.3217 25.6546 47.3217C27.2179 47.3217 28.6879 46.715 29.7846 45.6183L48.9413 26.5083Z" fill="#3F51B5"/>
</svg>
