<svg width="48" height="48" viewBox="0 0 48 48" fill="none" xmlns="http://www.w3.org/2000/svg">
<path d="M33.3334 5.33329C33.3334 2.76663 35.4334 0.666626 38.0001 0.666626C40.5667 0.666626 42.6667 2.76663 42.6667 5.33329C42.6667 7.89996 40.5667 9.99996 38.0001 9.99996C35.4334 9.99996 33.3334 7.89996 33.3334 5.33329ZM44.4867 13.6866C42.5034 12.8233 40.3101 12.3333 38.0001 12.3333C36.4367 12.3333 34.9434 12.5666 33.5201 12.9866C34.8734 14.27 35.6667 16.0666 35.6667 18.0033V19.3333H47.3334V18.0033C47.3334 16.1133 46.2134 14.4333 44.4867 13.6866ZM10.0001 9.99996C12.5667 9.99996 14.6667 7.89996 14.6667 5.33329C14.6667 2.76663 12.5667 0.666626 10.0001 0.666626C7.43341 0.666626 5.33341 2.76663 5.33341 5.33329C5.33341 7.89996 7.43341 9.99996 10.0001 9.99996ZM14.4801 12.9866C13.0567 12.5666 11.5634 12.3333 10.0001 12.3333C7.69008 12.3333 5.49675 12.8233 3.51341 13.6866C1.78675 14.4333 0.666748 16.1133 0.666748 18.0033V19.3333H12.3334V18.0033C12.3334 16.0666 13.1267 14.27 14.4801 12.9866ZM19.3334 5.33329C19.3334 2.76663 21.4334 0.666626 24.0001 0.666626C26.5667 0.666626 28.6667 2.76663 28.6667 5.33329C28.6667 7.89996 26.5667 9.99996 24.0001 9.99996C21.4334 9.99996 19.3334 7.89996 19.3334 5.33329ZM33.3334 19.3333H14.6667V18.0033C14.6667 16.1133 15.7867 14.4333 17.5134 13.6866C19.4967 12.8233 21.6901 12.3333 24.0001 12.3333C26.3101 12.3333 28.5034 12.8233 30.4867 13.6866C32.2134 14.4333 33.3334 16.1133 33.3334 18.0033V19.3333ZM31.0001 33.3333C31.0001 30.7666 33.1001 28.6666 35.6667 28.6666C38.2334 28.6666 40.3334 30.7666 40.3334 33.3333C40.3334 35.9 38.2334 38 35.6667 38C33.1001 38 31.0001 35.9 31.0001 33.3333ZM45.0001 47.3333H26.3334V46.0033C26.3334 44.1133 27.4534 42.4333 29.1801 41.6866C31.1634 40.8233 33.3567 40.3333 35.6667 40.3333C37.9767 40.3333 40.1701 40.8233 42.1534 41.6866C43.8801 42.4333 45.0001 44.1133 45.0001 46.0033V47.3333ZM7.66675 33.3333C7.66675 30.7666 9.76675 28.6666 12.3334 28.6666C14.9001 28.6666 17.0001 30.7666 17.0001 33.3333C17.0001 35.9 14.9001 38 12.3334 38C9.76675 38 7.66675 35.9 7.66675 33.3333ZM21.6667 47.3333H3.00008V46.0033C3.00008 44.1133 4.12008 42.4333 5.84675 41.6866C7.83008 40.8233 10.0234 40.3333 12.3334 40.3333C14.6434 40.3333 16.8367 40.8233 18.8201 41.6866C20.5467 42.4333 21.6667 44.1133 21.6667 46.0033V47.3333ZM25.7501 26.3333V21.6666H22.2501V26.3333H17.0001L24.0001 33.3333L31.0001 26.3333H25.7501Z" fill="#3F51B5"/>
</svg>
